#N canvas 336 22 954 381 10;
#X obj 101 168 pdlisp help foo;
#X obj 101 234 print outlet1;
#X obj 101 42 bng 15 250 50 0 empty empty empty 17 7 0 10 -262144 -1
-1;
#X floatatom 125 45 5 0 0 0 - - -, f 5;
#X msg 163 44 symbol Jane;
#X obj 188 207 print outlet2;
#X msg 49 17 reload;
#X text 93 17 reload file & re-instance object;
#X msg 247 43 list 1 2 3 5 6;
#X msg 246 65 msg 1 2 3 4;
#X obj 205 276 r obj;
#X floatatom 188 139 5 0 0 0 - - -, f 5;
#X floatatom 205 298 5 0 0 0 - - -, f 5;
#X floatatom 282 278 5 0 0 0 - - -, f 5;
#X obj 282 297 s recv;
#X msg 245 88 eval (outlet 2 (* 10 (random 10)));
#X text 201 168 pdlisp | filename | object name;
#X obj 513 158 pdlisp help;
#X connect 0 0 1 0;
#X connect 0 1 5 0;
#X connect 2 0 0 0;
#X connect 3 0 0 0;
#X connect 4 0 0 0;
#X connect 6 0 0 0;
#X connect 8 0 0 0;
#X connect 9 0 0 0;
#X connect 10 0 12 0;
#X connect 11 0 0 1;
#X connect 13 0 14 0;
#X connect 15 0 0 0;
